<mxfile host="app.diagrams.net" modified="2024-05-14T16:00:48.283Z" agent="Mozilla/5.0 (X11; Linux x86_64) AppleWebKit/537.36 (KHTML, like Gecko) Chrome/124.0.0.0 Safari/537.36" etag="qJEMcGQnrefi0ANUKEyb" version="24.3.1" type="github">
  <diagram name="Page-1" id="eUYF33arvarpF-JSKue8">
    <mxGraphModel dx="2033" dy="2259" grid="1" gridSize="10" guides="1" tooltips="1" connect="1" arrows="1" fold="1" page="1" pageScale="1" pageWidth="850" pageHeight="1100" math="0" shadow="0">
      <root>
        <mxCell id="0" />
        <mxCell id="1" parent="0" />
        <mxCell id="_xKd2bI7zV_ikocaUskM-12" value="" style="edgeStyle=orthogonalEdgeStyle;rounded=0;orthogonalLoop=1;jettySize=auto;html=1;" edge="1" parent="1" source="_xKd2bI7zV_ikocaUskM-1" target="_xKd2bI7zV_ikocaUskM-11">
          <mxGeometry relative="1" as="geometry" />
        </mxCell>
        <mxCell id="_xKd2bI7zV_ikocaUskM-14" style="edgeStyle=orthogonalEdgeStyle;rounded=0;orthogonalLoop=1;jettySize=auto;html=1;entryX=0;entryY=0.5;entryDx=0;entryDy=0;" edge="1" parent="1" source="_xKd2bI7zV_ikocaUskM-1" target="_xKd2bI7zV_ikocaUskM-13">
          <mxGeometry relative="1" as="geometry">
            <Array as="points">
              <mxPoint x="550" y="300" />
              <mxPoint x="550" y="300" />
            </Array>
          </mxGeometry>
        </mxCell>
        <mxCell id="_xKd2bI7zV_ikocaUskM-1" value="&lt;font color=&quot;#ffffff&quot;&gt;&lt;b&gt;Sheepdog Submission System&lt;/b&gt;&lt;/font&gt;" style="whiteSpace=wrap;html=1;aspect=fixed;fillColor=#4D4D4D;" vertex="1" parent="1">
          <mxGeometry x="300" y="140" width="220" height="220" as="geometry" />
        </mxCell>
        <mxCell id="_xKd2bI7zV_ikocaUskM-2" value="Actor" style="shape=umlActor;verticalLabelPosition=bottom;verticalAlign=top;html=1;outlineConnect=0;" vertex="1" parent="1">
          <mxGeometry x="70" y="215" width="30" height="60" as="geometry" />
        </mxCell>
        <mxCell id="_xKd2bI7zV_ikocaUskM-3" value="" style="endArrow=classic;html=1;rounded=0;entryX=-0.018;entryY=0.541;entryDx=0;entryDy=0;entryPerimeter=0;" edge="1" parent="1">
          <mxGeometry width="50" height="50" relative="1" as="geometry">
            <mxPoint x="85" y="241" as="sourcePoint" />
            <mxPoint x="301.94000000000005" y="242.97000000000003" as="targetPoint" />
          </mxGeometry>
        </mxCell>
        <mxCell id="_xKd2bI7zV_ikocaUskM-9" value="Submit" style="edgeLabel;html=1;align=center;verticalAlign=middle;resizable=0;points=[];" vertex="1" connectable="0" parent="_xKd2bI7zV_ikocaUskM-3">
          <mxGeometry x="-0.2255" y="-1" relative="1" as="geometry">
            <mxPoint y="-12" as="offset" />
          </mxGeometry>
        </mxCell>
        <mxCell id="_xKd2bI7zV_ikocaUskM-17" style="edgeStyle=orthogonalEdgeStyle;rounded=0;orthogonalLoop=1;jettySize=auto;html=1;entryX=0.5;entryY=1;entryDx=0;entryDy=0;" edge="1" parent="1" source="_xKd2bI7zV_ikocaUskM-4" target="_xKd2bI7zV_ikocaUskM-1">
          <mxGeometry relative="1" as="geometry" />
        </mxCell>
        <mxCell id="_xKd2bI7zV_ikocaUskM-4" value="Patch System" style="rounded=0;whiteSpace=wrap;html=1;" vertex="1" parent="1">
          <mxGeometry x="310" y="430" width="200" height="60" as="geometry" />
        </mxCell>
        <mxCell id="_xKd2bI7zV_ikocaUskM-7" style="edgeStyle=orthogonalEdgeStyle;rounded=0;orthogonalLoop=1;jettySize=auto;html=1;entryX=0;entryY=0.5;entryDx=0;entryDy=0;" edge="1" parent="1" source="_xKd2bI7zV_ikocaUskM-5" target="_xKd2bI7zV_ikocaUskM-4">
          <mxGeometry relative="1" as="geometry" />
        </mxCell>
        <mxCell id="_xKd2bI7zV_ikocaUskM-8" value="Patch" style="edgeLabel;html=1;align=center;verticalAlign=middle;resizable=0;points=[];" vertex="1" connectable="0" parent="_xKd2bI7zV_ikocaUskM-7">
          <mxGeometry x="-0.3" y="-2" relative="1" as="geometry">
            <mxPoint y="-11" as="offset" />
          </mxGeometry>
        </mxCell>
        <mxCell id="_xKd2bI7zV_ikocaUskM-5" value="Actor" style="shape=umlActor;verticalLabelPosition=bottom;verticalAlign=top;html=1;outlineConnect=0;" vertex="1" parent="1">
          <mxGeometry x="70" y="430" width="30" height="60" as="geometry" />
        </mxCell>
        <mxCell id="_xKd2bI7zV_ikocaUskM-11" value="IndexD" style="whiteSpace=wrap;html=1;" vertex="1" parent="1">
          <mxGeometry x="350" y="-22" width="120" height="60" as="geometry" />
        </mxCell>
        <mxCell id="_xKd2bI7zV_ikocaUskM-13" value="GraphDB" style="shape=datastore;whiteSpace=wrap;html=1;fillColor=#bac8d3;strokeColor=#23445d;" vertex="1" parent="1">
          <mxGeometry x="590" y="230" width="120" height="140" as="geometry" />
        </mxCell>
        <mxCell id="_xKd2bI7zV_ikocaUskM-15" value="Transactions" style="shape=datastore;whiteSpace=wrap;html=1;fillColor=#b0e3e6;strokeColor=#0e8088;" vertex="1" parent="1">
          <mxGeometry x="590" y="129" width="80" height="95" as="geometry" />
        </mxCell>
        <mxCell id="_xKd2bI7zV_ikocaUskM-16" value="" style="endArrow=classic;html=1;rounded=0;exitX=1.03;exitY=0.085;exitDx=0;exitDy=0;exitPerimeter=0;" edge="1" parent="1" target="_xKd2bI7zV_ikocaUskM-15">
          <mxGeometry width="50" height="50" relative="1" as="geometry">
            <mxPoint x="524" y="177" as="sourcePoint" />
            <mxPoint x="588" y="176.69230769230762" as="targetPoint" />
          </mxGeometry>
        </mxCell>
        <mxCell id="_xKd2bI7zV_ikocaUskM-19" value="Redaction Checks" style="rounded=1;whiteSpace=wrap;html=1;fillColor=#ffe6cc;strokeColor=#d79b00;" vertex="1" parent="1">
          <mxGeometry x="301" y="320" width="109" height="40" as="geometry" />
        </mxCell>
        <mxCell id="_xKd2bI7zV_ikocaUskM-20" value="Versioning" style="rounded=1;whiteSpace=wrap;html=1;fillColor=#d5e8d4;strokeColor=#82b366;" vertex="1" parent="1">
          <mxGeometry x="301" y="280" width="109" height="40" as="geometry" />
        </mxCell>
        <mxCell id="_xKd2bI7zV_ikocaUskM-21" value="QC Validations Checks" style="rounded=1;whiteSpace=wrap;html=1;fillColor=#f8cecc;strokeColor=#b85450;" vertex="1" parent="1">
          <mxGeometry x="410" y="280" width="110" height="40" as="geometry" />
        </mxCell>
        <mxCell id="_xKd2bI7zV_ikocaUskM-22" value="Transaction Log" style="rounded=1;whiteSpace=wrap;html=1;fillColor=#dae8fc;strokeColor=#6c8ebf;" vertex="1" parent="1">
          <mxGeometry x="410" y="320" width="108" height="40" as="geometry" />
        </mxCell>
      </root>
    </mxGraphModel>
  </diagram>
</mxfile>
